# xmcd
#
# Track frame offsets:
#	150
#	16026
#	32057
#	51504
#	75718
#	77997
#	99501
#	119703
#	138335
#	158329
#	177314
#	192351
#	213981
#	233421
#	254671
#	274853
#	296847
#	315283
#	328780
#
# Disc length: 4693 seconds
#
# Revision: 0
# Processed by: cddbd v1.5.1PL0 Copyright (c) Steve Scherf et al.
# Submitted via: audiograbber 1.82.02
#
DISCID=0b125313
DTITLE=Nasty Nardo - Can't Stop Ballin'
DYEAR=2004
DGENRE=Gangsta
TTITLE0=Nasty Nardo - 'Til They Kill Me
TTITLE1=Nasty Nardo - Dope Boy
TTITLE2=Nasty Nardo - Click On 'Em
TTITLE3=Nasty Nardo, Don Vito, K-9 - U Gettin Dealt With
TTITLE4=Nasty Nardo - Big Fuckin Star
TTITLE5=Nasty Nardo, Gangsta Boo - Let's Get A Room
TTITLE6=Nasty Nardo, Mr. Sche - Rollin'
TTITLE7=Nasty Nardo, Jay-P - Dancin'
TTITLE8=Nasty Nardo, Miss T, Jay-P - Towe Up
TTITLE9=Nasty Nardo, Tom Skeemask - Mean Muggs
TTITLE10=Nasty Nardo - Call The Police
TTITLE11=Nasty Nardo - They Call Me...
TTITLE12=Nasty Nardo, Mr. Sche - Take Ya Shirt Off
TTITLE13=Nasty Nardo - Right Chere
TTITLE14=Nasty Nardo, Kingpin Skinny Pimp - Don't Play With It
TTITLE15=Nasty Nardo - Trill
TTITLE16=Nasty Nardo, Al Kapone - Yuckmouth
TTITLE17=Nasty Nardo, Al Kapone, Se7ven Da Great - My Fila's
TTITLE18=Nasty Nardo, Burn Unit, Krunk City, Tydial, Pistol Pete, Weekend, Silk
TTITLE18=ii T, Chopper Girl, B - Cartel Niggas
EXTD=
EXTT0=
EXTT1=
EXTT2=
EXTT3=
EXTT4=
EXTT5=
EXTT6=
EXTT7=
EXTT8=
EXTT9=
EXTT10=
EXTT11=
EXTT12=
EXTT13=
EXTT14=
EXTT15=
EXTT16=
EXTT17=
EXTT18=
PLAYORDER=
